<?xml version="1.0" encoding="UTF-8"?><svg id="a" xmlns="http://www.w3.org/2000/svg" viewBox="0 0 630 80"><defs><style>.b{fill:#fc0;}</style></defs><rect width="32" height="32"/><rect x="32" y="48" width="32" height="32"/><rect class="b" y="32" width="64" height="16"/><rect x="214" y="12" width="8" height="56"/><polygon points="146 60 146 12 138 12 138 60 138 68 146 68 174 68 174 60 146 60"/><polygon points="206 12 192 12 184 12 170 12 170 20 184 20 184 68 192 68 192 20 206 20 206 12"/><rect x="530" y="12" width="8" height="56"/><polygon points="364 12 350 12 342 12 328 12 328 20 342 20 342 68 350 68 350 20 364 20 364 12"/><polygon points="408 20 408 12 380 12 372 12 372 20 372 60 372 68 380 68 408 68 408 60 380 60 380 44 408 44 408 36 380 36 380 20 408 20"/><polygon points="630 20 630 12 602 12 594 12 594 20 594 60 594 68 602 68 630 68 630 60 602 60 602 44 630 44 630 36 602 36 602 20 630 20"/><path d="M120,12V48c0,6.62-5.38,12-12,12s-12-5.38-12-12V12h-8V48c0,11.05,8.95,20,20,20s20-8.95,20-20V12h-8Z"/><path d="M566,60c-6.62,0-12-5.38-12-12v-16c0-6.62,5.38-12,12-12s12,5.38,12,12h8c0-11.05-8.95-20-20-20s-20,8.95-20,20v16c0,11.05,8.95,20,20,20s20-8.95,20-20h-8c0,6.62-5.38,12-12,12Z"/><path d="M460,12h-20v56h8v-24h12c8.84,0,16-7.16,16-16s-7.16-16-16-16Zm0,24h-12V20h12c4.41,0,8,3.59,8,8s-3.59,8-8,8Z"/><path d="M323.49,68h8.51l-19.74-54.24-.64-1.76h-7.24l-.64,1.76-19.74,54.24h8.51l4.37-12h22.24l4.37,12Zm-23.69-20l8.21-22.55,8.21,22.55h-16.41Z"/><polygon points="275.74 12 268 12 267.22 12 254 48.33 240.78 12 240 12 232.26 12 232 12 232 68 240 68 240 33.26 249.73 60 249.75 60 258.25 60 258.27 60 268 33.26 268 68 276 68 276 12 275.74 12"/><path d="M522,68l-9.6-26.38c4.56-2.82,7.6-7.86,7.6-13.62,0-8.84-7.16-16-16-16h-20v56h8v-24h12c.25,0,.5,0,.74-.02l8.74,24.02h8.51Zm-30-48h12c4.41,0,8,3.59,8,8s-3.59,8-8,8h-12V20Z"/></svg>